GIL08_xslow2_RRA_states
nRows=5
nColumns=47

# SIMM Motion File Header:
name GIL08_xslow2_RRA_states
datacolumns 47
datarows 5
otherdata 1
range 0.96733000000000058000 0.96933000000000058000
endheader
time	pelvis_tx	pelvis_ty	pelvis_tz	pelvis_tilt	pelvis_list	pelvis_rotation	hip_flexion_r	hip_adduction_r	hip_rotation_r	knee_angle_r	ankle_angle_r	subtalar_angle_r	mtp_angle_r	hip_flexion_l	hip_adduction_l	hip_rotation_l	knee_angle_l	ankle_angle_l	subtalar_angle_l	mtp_angle_l	lumbar_extension	lumbar_bending	lumbar_rotation	pelvis_tx_u	pelvis_ty_u	pelvis_tz_u	pelvis_tilt_u	pelvis_list_u	pelvis_rotation_u	hip_flexion_r_u	hip_adduction_r_u	hip_rotation_r_u	knee_angle_r_u	ankle_angle_r_u	subtalar_angle_r_u	mtp_angle_r_u	hip_flexion_l_u	hip_adduction_l_u	hip_rotation_l_u	knee_angle_l_u	ankle_angle_l_u	subtalar_angle_l_u	mtp_angle_l_u	lumbar_extension_u	lumbar_bending_u	lumbar_rotation_u
      0.96733000000000058000	     -0.45634417954213097000	      0.96194015216813133000	      0.26966992944440071000	      4.56800517479991970000	     -3.02827015764939490000	      6.66409292602401940000	     13.61136795176123600000	      3.30920438459128570000	      3.98550749159030900000	    -10.55323564497529000000	     -6.13389251236722370000	     -0.00000000000002343658	     -0.00000000000000769955	    -13.78288443965545800000	     -4.24282689933593020000	     10.46444291818764300000	    -16.14939411570545900000	     14.91322747479010500000	      0.00000000000009445822	      0.00000000000026869638	    -10.69616520147770800000	      4.63404116939638030000	      1.42386200525897370000	      0.70905742752905787000	      0.10485729003641156000	      0.03942418136530937600	      0.60125598689113424000	    -11.52135322700387700000	     23.21487802334316100000	    -32.41388991010398300000	     17.97491585412404900000	      4.75024456707440730000	    -16.31045446404199600000	     24.00886447945134000000	     -0.00000000000010867601	      0.00000000000000907617	     14.55880273403443500000	    -27.50155125897520800000	    -18.06323069734721500000	    -86.25981084798178200000	    -59.68434261207603700000	     -0.00000000000036666334	      0.00000000000123730275	      5.87850254360907610000	     23.68400636450367700000	     -3.94990098371880550000
      0.96783000000000052000	     -0.45598961126824811000	      0.96199267570122171000	      0.26968957568484775000	      4.56832301332970300000	     -3.03400823803361950000	      6.67572008915610930000	     13.59507728750650400000	      3.31814320217607910000	      3.98769293602604560000	    -10.56131359518098900000	     -6.12177061275080890000	     -0.00000000000002349270	     -0.00000000000000769403	    -13.77552468690295100000	     -4.25656876589689940000	     10.45529059608340100000	    -16.19268481969548600000	     14.88332593777715100000	      0.00000000000009427991	      0.00000000000026929748	    -10.69323884559398500000	      4.64587525644132970000	      1.42185151735078710000	      0.70921521141530419000	      0.10523609841129251000	      0.03916028213104024600	      0.67014793315578725000	    -11.43066798884087600000	     23.29373923745755800000	    -32.74876376413052300000	     17.78000351230572900000	      3.99007978172080470000	    -16.00138157171871000000	     24.47736631238212000000	     -0.00000000000011708281	      0.00000000000000814384	     14.88020133619928800000	    -27.46569769894318800000	    -18.54683998397734600000	    -86.90303114167807100000	    -59.92230751870992100000	     -0.00000000000035086627	      0.00000000000119482213	      5.82686261525345550000	     23.65215759481300500000	     -4.09224505541107050000
      0.96833000000000058000	     -0.45563496478880805000	      0.96204538753105684000	      0.26970908923040954000	      4.56867537515381270000	     -3.03970053016839570000	      6.68738662985546380000	     13.57861918961953600000	      3.32698404413849810000	      3.98949610817653080000	    -10.56923706218279700000	     -6.10941646535927770000	     -0.00000000000002355385	     -0.00000000000000769283	    -13.76800424808057200000	     -4.27029238604395540000	     10.44589529727634200000	    -16.23629716982318900000	     14.85330455103240300000	      0.00000000000009410213	      0.00000000000026990203	    -10.69033840001145200000	      4.65769314841606260000	      1.41976956715912710000	      0.70937024662039128000	      0.10561049333122155000	      0.03889340641156929100	      0.73935432443510274000	    -11.33820994164118700000	     23.37238795641894000000	    -33.08362752738580800000	     17.58302748885755700000	      3.22113684882756820000	    -15.69252283045495700000	     24.93795160762063300000	     -0.00000000000012109992	     -0.00000000000000753000	     15.20154093811414600000	    -27.42857813619897200000	    -19.03513414745447800000	    -87.54638841978237500000	    -60.16396877101367100000	     -0.00000000000038219189	      0.00000000000125325342	      5.77485585338506890000	     23.61923730892620200000	     -4.23574727738924930000
      0.96883000000000052000	     -0.45528024149231228000	      0.96209828546075093000	      0.26972846861441352000	      4.56906241637243050000	     -3.04534615428809950000	      6.69909243458884780000	     13.56199367520251400000	      3.33572589292294850000	      3.99091264840280280000	    -10.57700616441214000000	     -6.09683398422248680000	     -0.00000000000002361339	     -0.00000000000000769587	    -13.76032315579563700000	     -4.28399713571886750000	     10.43625468550089300000	    -16.28023122232309200000	     14.82316131881446900000	      0.00000000000009391547	      0.00000000000027051937	    -10.68746404979971000000	      4.66949431320012830000	      1.41761558752547120000	      0.70952245760459587000	      0.10598048492242956000	      0.03862366989328684700	      0.80885295284506398000	    -11.24398979469689800000	     23.45078145533186000000	    -33.41839960663679700000	     17.38403113697780400000	      2.44364812087584450000	    -15.38394283021084700000	     25.39059770088970300000	     -0.00000000000010946432	     -0.00000000000001703014	     15.52282110070573900000	    -27.39020863817210800000	    -19.52808628219880300000	    -88.18983008775305200000	    -60.40953004972941900000	     -0.00000000000035939026	      0.00000000000116281990	      5.72248878330567920000	     23.58523366612789500000	     -4.38034464795607010000
      0.96933000000000058000	     -0.45492544281410524000	      0.96215136728354578000	      0.26974771244242590000	      4.56948427317891690000	     -3.05094422757916650000	      6.71083736179309120000	     13.54520081850576000000	      3.34436774513331650000	      3.99193837099491810000	    -10.58462106193503200000	     -6.08402719547264680000	     -0.00000000000002366431	     -0.00000000000000770250	    -13.75248143716744300000	     -4.29768238855132620000	     10.42636643934416800000	    -16.32448700490341100000	     14.79289434117573900000	      0.00000000000009373555	      0.00000000000027109590	    -10.68461597026464600000	      4.68127819905318270000	      1.41538905023647430000	      0.70967177105753954000	      0.10634608138417960000	      0.03835118636942186400	      0.87862193465157834000	    -11.14801535889525800000	     23.52887778809098800000	    -33.75300037264099000000	     17.18305404601635900000	      1.65784862301629280000	    -15.07570469490363700000	     25.83527615890503500000	     -0.00000000000009625431	     -0.00000000000001165120	     15.84403970517739200000	    -27.35060230091620100000	    -20.02566762008615300000	    -88.83330083872280600000	    -60.65916907547306600000	     -0.00000000000035356742	      0.00000000000111340001	      5.66976755528892800000	     23.55013178684267700000	     -4.52597554602736720000
